<?xml version="1.0" standalone="no"?>
<!DOCTYPE svg PUBLIC "-//W3C//DTD SVG 20010904//EN"
 "http://www.w3.org/TR/2001/REC-SVG-20010904/DTD/svg10.dtd">
<svg version="1.0" xmlns="http://www.w3.org/2000/svg"
 width="512.000000pt" height="512.000000pt" viewBox="0 0 512.000000 512.000000"
 preserveAspectRatio="xMidYMid meet">
<metadata>
Created by potrace 1.11, written by Peter Selinger 2001-2013
</metadata>
<g transform="translate(0.000000,512.000000) scale(0.100000,-0.100000)"
fill="#000000" stroke="none">
<path d="M2407 5054 c-1 -1 -40 -5 -87 -8 -47 -4 -103 -11 -125 -16 -22 -5
-58 -11 -80 -14 -248 -33 -620 -175 -875 -336 -89 -55 -223 -151 -251 -179 -9
-9 -34 -29 -55 -46 -73 -58 -255 -245 -324 -335 -19 -25 -38 -46 -42 -48 -5
-2 -8 -10 -8 -17 0 -7 -3 -15 -8 -17 -24 -10 -173 -251 -235 -378 -49 -102
-106 -240 -100 -240 3 0 1 -6 -4 -12 -8 -11 -17 -36 -28 -78 0 -3 -8 -27 -17
-55 -15 -47 -28 -92 -34 -124 -1 -7 -7 -34 -13 -60 -6 -25 -13 -57 -15 -71 -3
-14 -5 -25 -6 -25 -1 0 -3 -18 -6 -40 -2 -22 -7 -51 -10 -65 -23 -97 -23 -531
0 -660 2 -14 8 -47 12 -75 4 -27 8 -52 9 -55 2 -9 17 -84 21 -109 3 -13 9 -32
15 -43 5 -10 8 -18 5 -18 -3 0 2 -21 10 -47 8 -27 16 -55 18 -63 8 -32 60
-175 73 -199 7 -15 13 -30 13 -34 0 -14 114 -242 122 -245 5 -2 8 -8 8 -13 0
-12 62 -113 72 -117 4 -2 8 -9 8 -15 0 -7 18 -36 40 -65 22 -29 40 -56 40 -61
0 -5 4 -11 9 -13 4 -1 37 -39 72 -83 164 -205 458 -456 669 -571 19 -10 37
-22 40 -25 5 -5 138 -70 230 -112 84 -38 288 -109 345 -120 11 -2 27 -6 35 -9
34 -13 144 -34 219 -43 30 -3 58 -8 61 -10 26 -16 448 -25 560 -12 122 14 136
16 170 22 19 4 44 8 55 9 24 4 143 30 163 36 4 1 11 2 16 1 4 -1 14 4 22 10 8
6 14 9 14 6 0 -4 19 1 43 9 23 9 53 18 66 20 13 3 31 9 40 13 9 5 18 9 21 9 3
1 23 8 45 18 22 9 45 17 50 19 27 6 275 123 285 134 3 3 21 15 40 25 145 79
358 243 503 389 262 263 468 585 584 912 13 39 27 77 30 85 3 8 7 20 8 25 0 6
4 17 7 25 8 19 56 216 63 255 2 17 7 47 10 69 4 21 8 48 11 60 23 120 23 565
0 667 -3 13 -8 42 -10 64 -5 42 -7 48 -30 155 -18 82 -45 180 -52 191 -3 5 -7
20 -10 33 -13 74 -169 418 -225 498 -11 14 -19 29 -19 32 0 5 -95 148 -117
176 -7 8 -34 42 -60 75 -148 187 -336 362 -544 508 -37 26 -71 47 -76 47 -5 0
-18 8 -29 18 -10 9 -37 27 -59 39 -22 11 -58 31 -79 43 -175 97 -530 221 -703
245 -50 7 -108 16 -133 21 -66 12 -472 28 -483 18z"/>
</g>
</svg>
